<svg xmlns="http://www.w3.org/2000/svg" version="1.1" xmlns:xlink="http://www.w3.org/1999/xlink" xmlns:svgjs="http://svgjs.dev/svgjs" width="1000" height="1342" viewBox="0 0 1000 1342"><g transform="matrix(1,0,0,1,0.3288043478261784,0.5433198380566182)"><svg viewBox="0 0 184 247" data-background-color="#398378" preserveAspectRatio="xMidYMid meet" height="1342" width="1000" xmlns="http://www.w3.org/2000/svg" xmlns:xlink="http://www.w3.org/1999/xlink"><g id="tight-bounds" transform="matrix(1,0,0,1,-0.06050000000001887,-0.09999999999999432)"><svg viewBox="0 0 184.12057878260867 247.2" height="247.2" width="184.12057878260867"><g><svg></svg></g><g><svg viewBox="0 0 184.12057878260867 247.2" height="247.2" width="184.12057878260867"><g transform="matrix(1,0,0,1,0,47.215199999999996)"><svg viewBox="0 0 184.12057878260867 152.7696" height="152.7696" width="184.12057878260867"><g><svg viewBox="0 0 184.12057878260867 152.7696" height="152.7696" width="184.12057878260867"><g><svg viewBox="0 0 184.12057878260867 152.7696" height="152.7696" width="184.12057878260867"><g><svg viewBox="0 0 184.12057878260867 152.7696" height="152.7696" width="184.12057878260867"><g id="textblocktransform"><svg viewBox="0 0 184.12057878260867 152.7696" height="152.7696" width="184.12057878260867" id="textblock"><g><svg viewBox="0 0 184.12057878260867 152.7696" height="152.7696" width="184.12057878260867"><g transform="matrix(1,0,0,1,0,0)"><svg width="184.12057878260867" viewBox="4 -28.75 34.650001525878906 28.75" height="152.7696" data-palette-color="#ffffff"><path d="M4-3.4L4-25.3 9.85-28.75 20.2-28.75 20.2-22.85 10.5-22.85 10.5-5.65 20-5.65 20 0 9.85 0 4-3.4ZM32.15-19.45L38.65-19.45 38.65-25.3 32.8-28.75 22.45-28.75 22.45-22.85 32.15-22.85 32.15-19.45ZM38.65-3.4L38.65-17.2 22.45-17.2 22.45-11.5 32.15-11.5 32.15-5.65 22.65-5.65 22.65 0 32.8 0 38.65-3.4Z" opacity="1" transform="matrix(1,0,0,1,0,0)" fill="#ffffff" class="undefined-text-0" data-fill-palette-color="primary" id="text-0"></path></svg></g></svg></g></svg></g></svg></g><g></g></svg></g></svg></g></svg></g><path d="M0 41.215L0 1 184.121 1 184.121 41.215 170.344 41.215 170.344 14.777 13.777 14.777 13.777 41.215 0 41.215M0 205.985L0 246.2 184.121 246.2 184.121 205.985 170.344 205.985 170.344 232.423 13.777 232.423 13.777 205.985 0 205.985" fill="#ffffff" stroke="transparent" data-fill-palette-color="primary"></path></svg></g><defs></defs></svg><rect width="184.12057878260867" height="247.2" fill="none" stroke="none" visibility="hidden"></rect></g></svg></g></svg>